<svg xmlns="http://www.w3.org/2000/svg" width="32" height="32" fill="none"><path fill="#fff" d="M28.8 0H3.2A3.2 3.2 0 0 0 0 3.2v25.6A3.2 3.2 0 0 0 3.2 32h25.6a3.2 3.2 0 0 0 3.2-3.2V3.2A3.2 3.2 0 0 0 28.8 0Z"/><path fill="#ED4300" d="M22.108 7.893c-.096-.034-.233-.025-.422.04l-4.322 1.553c-.6.219-.887.763-.898 1.684v3.154a.287.287 0 0 1-.574 0v-3.157c.013-1.14.418-1.907 1.277-2.22l3.94-1.415-1.147-.414a.286.286 0 0 1-.023-.007c-.09-.032-.229-.023-.417.042L15.2 8.706a.287.287 0 0 1-.194-.54l4.313-1.548c.303-.106.559-.126.78-.058a.29.29 0 0 1 .034.01l2.162.78c.369.136.173.672-.186.543Z"/><path fill="#ED4300" d="M13.728 13.128v-2.726c.013-1.143.419-1.92 1.275-2.233a.287.287 0 0 1 .197.539c-.599.218-.888.773-.899 1.697v3.134c0 .2-.198.338-.386.269l-2.699-.993c-2.487-.853-4.476 1.08-4.49 4.33-.012 3.85 1.835 6.686 4.68 7.717.76.27 1.499.277 2.15.039a.287.287 0 0 1 .197.538c-.78.285-1.656.278-2.542-.038-3.08-1.116-5.071-4.172-5.058-8.259.014-3.604 2.343-5.865 5.255-4.867l2.32.853Z"/><path fill="#ED4300" d="M11.216 15.168c-1.283-.448-2.336.7-2.324 2.686-.013 2.256.994 4.065 2.515 4.628 1.269.451 2.31-.666 2.322-2.676v-3.701l-2.513-.937Zm.195-.54 2.705 1.01a.286.286 0 0 1 .187.268v3.902c-.015 2.357-1.38 3.822-3.092 3.212-1.773-.655-2.906-2.69-2.893-5.164-.013-2.333 1.362-3.832 3.093-3.227ZM21.683 7.934a.287.287 0 0 1-.188-.541c.996-.346 1.467.252 1.463 1.436v3.134a.287.287 0 0 1-.573 0V8.828c.003-.848-.177-1.076-.702-.894ZM24.927 13.827c-.15.051-.937.333-2.145.769l-1.5.542-.49.177-.138.05-.048.017c-.809.296-1.552.289-2.357-.002l-2.168-.784a.287.287 0 1 1 .196-.539l2.168.785c.679.245 1.284.25 1.965.002l.049-.018.137-.05.49-.177 1.492-.539c1.227-.442 2.01-.723 2.16-.774.226-.08.384-.147.481-.2a.644.644 0 0 0 .06-.037c.114-.268.547-.202.547.12v2.328a.292.292 0 0 1-.004.05c-.045.26-.272.386-.875.602l-1.988.72v1.46c-.01 2.288-1.054 4.142-2.694 4.764l-6.513 2.347c-.357.128-.554-.405-.197-.539 1.4-.522 2.329-2.161 2.337-4.234v-4c0-.199.198-.337.385-.27l2.168.785c.679.245 1.284.251 1.965.002l4.343-1.574c.228-.082.383-.147.476-.198.006-.004.014-.573.024-1.709a7.58 7.58 0 0 1-.326.124Zm-4.32 3.895c-.81.296-1.553.289-2.357-.001l-1.784-.646v3.594c-.006 1.43-.42 2.693-1.128 3.59l4.728-1.704c1.391-.527 2.31-2.16 2.319-4.228v-1.25l-1.779.645Z"/><path fill="#ED4300" d="M16.278 14.592a.287.287 0 0 1-.197-.538l6.491-2.362a.287.287 0 0 1 .198 0l2.17.805c.426.159.507.191.63.266.168.103.272.237.254.428a.287.287 0 0 1-.56.057c-.073-.044-.163-.08-.524-.213l-2.07-.769-6.392 2.326ZM9.063 12.786a.287.287 0 0 1-.193-.54l5.047-1.801a.287.287 0 0 1 .193.54l-5.047 1.801Z"/></svg>
