<svg xmlns="http://www.w3.org/2000/svg" width="32" height="32" fill="none"><path fill="#000" d="M0 3.2A3.2 3.2 0 0 1 3.2 0h25.6A3.2 3.2 0 0 1 32 3.2v25.6a3.2 3.2 0 0 1-3.2 3.2H3.2A3.2 3.2 0 0 1 0 28.8V3.2Z"/><path fill="#fff" d="M0 3.2A3.2 3.2 0 0 1 3.2 0h25.6A3.2 3.2 0 0 1 32 3.2v25.6a3.2 3.2 0 0 1-3.2 3.2H3.2A3.2 3.2 0 0 1 0 28.8V3.2Z"/><path fill="#0094FF" d="M7.213 16.886c0-.147.036-.22.072-.331.036-.037.072-.037.072-.074.324-.515.72-1.03 1.115-1.472.503-.552 1.007-1.03 1.546-1.399.54-.405 1.043-.7 1.582-.92 1.007-.442 1.87-.442 2.59-.221.323.11.647.22.934.368.288.147.612.368.9.589.287.22.61.479.934.736.36.258.683.515.971.736.54.369.971.369 1.367.148.18-.11.395-.258.61-.442.217-.184.468-.479.72-.81.216-.258.431-.589.683-.994.108-.147.252-.258.432-.258.144 0 .251.037.323.148l2.41 2.061c.107.11.18.258.18.405 0 .11-.037.221-.108.295-.324.515-.648.994-1.007 1.435-.432.515-.9.994-1.403 1.436a8.12 8.12 0 0 1-1.582.994c-.54.22-1.115.368-1.654.368-.647 0-1.223-.11-1.762-.368a5.892 5.892 0 0 1-1.33-.81 11.317 11.317 0 0 1-.756-.626 4.502 4.502 0 0 0-.683-.552c-.216-.147-.431-.258-.647-.368a1.431 1.431 0 0 0-.683-.147c-.324 0-.684.184-1.08.552-.395.331-.79.883-1.222 1.656-.107.148-.251.258-.431.258a.571.571 0 0 1-.324-.11L7.43 17.328c-.108-.11-.216-.258-.216-.442Z"/></svg>
